<svg width="12" height="16" viewBox="0 0 12 16" fill="none" xmlns="http://www.w3.org/2000/svg">
<path d="M10 12.5C9.93442 12.5008 9.86941 12.4879 9.80913 12.462C9.74885 12.4362 9.69465 12.398 9.65 12.35L1.65 4.34999C1.45 4.14999 1.45 3.83999 1.65 3.63999C1.85 3.43999 2.16 3.43999 2.36 3.63999L10.35 11.65C10.55 11.85 10.55 12.16 10.35 12.36C10.25 12.46 10.12 12.51 10 12.51V12.5Z" fill="black"/>
<path d="M2 12.5C1.93442 12.5008 1.86941 12.4879 1.80913 12.462C1.74885 12.4362 1.69465 12.398 1.65 12.35C1.45 12.15 1.45 11.84 1.65 11.64L9.65 3.65C9.85 3.45 10.16 3.45 10.36 3.65C10.56 3.85 10.56 4.16 10.36 4.36L2.35 12.35C2.25 12.45 2.12 12.5 2 12.5Z" fill="black"/>
</svg>
